HIERARCHY
ROOT hip
{
  OFFSET 0 0 0
  CHANNELS 6 Xposition Yposition Zposition Zrotation Yrotation Xrotation
  JOINT abdomen
  {
    OFFSET 0 20.6881 -0.73152
    CHANNELS 3 Zrotation Xrotation Yrotation
    JOINT chest
    {
      OFFSET 0 11.7043 -0.48768
      CHANNELS 3 Zrotation Xrotation Yrotation
      JOINT neck
      {
        OFFSET 0 22.1894 -2.19456
        CHANNELS 3 Zrotation Xrotation Yrotation
        JOINT head
        {
          OFFSET -0.24384 7.07133 1.2192
          CHANNELS 3 Zrotation Xrotation Yrotation
          JOINT leftEye
          {
            OFFSET 4.14528 8.04674 8.04672
            CHANNELS 3 Zrotation Xrotation Yrotation
            End Site
            {
              OFFSET 1 0 0
            }
          }
          JOINT rightEye
          {
            OFFSET -3.6576 8.04674 8.04672
            CHANNELS 3 Zrotation Xrotation Yrotation
            End Site
            {
              OFFSET 1 0 0
            }
          }
        }
      }
      JOINT rCollar
      {
        OFFSET -2.68224 19.2634 -4.8768
        CHANNELS 3 Zrotation Xrotation Yrotation
        JOINT rShldr
        {
          OFFSET -8.77824 -1.95073 1.46304
          CHANNELS 3 Zrotation Xrotation Yrotation
          JOINT rForeArm
          {
            OFFSET -28.1742 -1.7115 0.48768
            CHANNELS 3 Zrotation Xrotation Yrotation
            JOINT rHand
            {
              OFFSET -22.5879 0.773209 7.07136
              CHANNELS 3 Zrotation Xrotation Yrotation
              JOINT rThumb1
              {
                OFFSET -1.2192 -0.487915 3.41376
                CHANNELS 3 Zrotation Xrotation Yrotation
                JOINT rThumb2
                {
                  OFFSET -3.37035 -0.52449 3.41376
                  CHANNELS 3 Zrotation Xrotation Yrotation
                  End Site
                  {
                    OFFSET -1.78271 -1.18214 1.43049
                  }
                }
              }
              JOINT rIndex1
              {
                OFFSET -7.75947 0.938293 5.60832
                CHANNELS 3 Zrotation Xrotation Yrotation
                JOINT rIndex2
                {
                  OFFSET -2.54057 -0.884171 1.56538
                  CHANNELS 3 Zrotation Xrotation Yrotation
                  End Site
                  {
                    OFFSET -1.62519 -0.234802 1.16502
                  }
                }
              }
              JOINT rMid1
              {
                OFFSET -8.24714 1.18213 3.41376
                CHANNELS 3 Zrotation Xrotation Yrotation
                JOINT rMid2
                {
                  OFFSET -3.10165 -0.590103 1.0647
                  CHANNELS 3 Zrotation Xrotation Yrotation
                  End Site
                  {
                    OFFSET -2.48547 -0.328903 0.83742
                  }
                }
              }
              JOINT rRing1
              {
                OFFSET -8.82822 0.546677 1.51678
                CHANNELS 3 Zrotation Xrotation Yrotation
                JOINT rRing2
                {
                  OFFSET -2.60934 -0.819778 -0.0198488
                  CHANNELS 3 Zrotation Xrotation Yrotation
                  End Site
                  {
                    OFFSET -2.33842 -0.294052 0.168128
                  }
                }
              }
              JOINT rPinky1
              {
                OFFSET -8.27202 -0.0477905 -0.4584
                CHANNELS 3 Zrotation Xrotation Yrotation
                JOINT rPinky2
                {
                  OFFSET -1.82734 -0.647385 -0.700984
                  CHANNELS 3 Zrotation Xrotation Yrotation
                  End Site
                  {
                    OFFSET -1.69225 -0.51767 -0.607171
                  }
                }
              }
            }
          }
        }
      }
      JOINT lCollar
      {
        OFFSET 2.68224 19.2634 -4.8768
        CHANNELS 3 Zrotation Xrotation Yrotation
        JOINT lShldr
        {
          OFFSET 8.77824 -1.95073 1.46304
          CHANNELS 3 Zrotation Xrotation Yrotation
          JOINT lForeArm
          {
            OFFSET 28.1742 -1.7115 0.48768
            CHANNELS 3 Zrotation Xrotation Yrotation
            JOINT lHand
            {
              OFFSET 22.5879 0.773209 7.07136
              CHANNELS 3 Zrotation Xrotation Yrotation
              JOINT lThumb1
              {
                OFFSET 1.2192 -0.487915 3.41376
                CHANNELS 3 Zrotation Xrotation Yrotation
                JOINT lThumb2
                {
                  OFFSET 3.37035 -0.52449 3.41376
                  CHANNELS 3 Zrotation Xrotation Yrotation
                  End Site
                  {
                    OFFSET 1.78271 -1.18214 1.43049
                  }
                }
              }
              JOINT lIndex1
              {
                OFFSET 7.75947 0.938293 5.60832
                CHANNELS 3 Zrotation Xrotation Yrotation
                JOINT lIndex2
                {
                  OFFSET 2.54057 -0.884171 1.56538
                  CHANNELS 3 Zrotation Xrotation Yrotation
                  End Site
                  {
                    OFFSET 1.62519 -0.234802 1.16502
                  }
                }
              }
              JOINT lMid1
              {
                OFFSET 8.24714 1.18213 3.41376
                CHANNELS 3 Zrotation Xrotation Yrotation
                JOINT lMid2
                {
                  OFFSET 3.10165 -0.590103 1.0647
                  CHANNELS 3 Zrotation Xrotation Yrotation
                  End Site
                  {
                    OFFSET 2.48547 -0.328903 0.83742
                  }
                }
              }
              JOINT lRing1
              {
                OFFSET 8.82822 0.546677 1.51678
                CHANNELS 3 Zrotation Xrotation Yrotation
                JOINT lRing2
                {
                  OFFSET 2.60934 -0.819778 -0.0198488
                  CHANNELS 3 Zrotation Xrotation Yrotation
                  End Site
                  {
                    OFFSET 2.33842 -0.294052 0.168128
                  }
                }
              }
              JOINT lPinky1
              {
                OFFSET 8.27202 -0.0477905 -0.4584
                CHANNELS 3 Zrotation Xrotation Yrotation
                JOINT lPinky2
                {
                  OFFSET 1.82734 -0.647385 -0.700984
                  CHANNELS 3 Zrotation Xrotation Yrotation
                  End Site
                  {
                    OFFSET 1.69225 -0.51767 -0.607171
                  }
                }
              }
            }
          }
        }
      }
    }
  }
  JOINT rButtock
  {
    OFFSET -8.77824 4.35084 1.2192
    CHANNELS 3 Zrotation Xrotation Yrotation
    JOINT rThigh
    {
      OFFSET 0 -1.70687 -2.19456
      CHANNELS 3 Zrotation Xrotation Yrotation
      JOINT rShin
      {
        OFFSET 0 -36.8199 0.73152
        CHANNELS 3 Zrotation Xrotation Yrotation
        JOINT rFoot
        {
          OFFSET 0.73152 -45.1104 -5.12064
          CHANNELS 3 Zrotation Xrotation Yrotation
          End Site
          {
            OFFSET -1.1221 -3.69964 12.103
          }
        }
      }
    }
  }
  JOINT lButtock
  {
    OFFSET 8.77824 4.35084 1.2192
    CHANNELS 3 Zrotation Xrotation Yrotation
    JOINT lThigh
    {
      OFFSET 0 -1.70687 -2.19456
      CHANNELS 3 Zrotation Xrotation Yrotation
      JOINT lShin
      {
        OFFSET 0 -36.8199 0.73152
        CHANNELS 3 Zrotation Xrotation Yrotation
        JOINT lFoot
        {
          OFFSET -0.73152 -45.1104 -5.12064
          CHANNELS 3 Zrotation Xrotation Yrotation
          End Site
          {
            OFFSET 1.1221 -3.69964 12.103
          }
        }
      }
    }
  }
}
MOTION
Frames:	7
Frame Time:	0.03333
-61.90330000000001 48.375 -10.768899999999999 -159.55738 -38.876853 172.369966 9.769217 6.462147 75.035258 -3.755809 -6.286004 -68.221223 -9.971874 21.016262 -69.645478 32.28358 5.812587 93.621857 0.000571 0.0 0.000128 0.000571 0.0 0.000128 3.954849 -36.926082 -7.117395 58.139889 24.23965 -65.417407 -125.333812 -46.673816 68.193718 -172.782821 -23.331801 148.112819 153.793975 -37.505808 80.230083 -141.620941 18.655925 83.905558 -144.021068 -3.995836 118.019966 -161.309507 -12.659225 119.28891 5.405857 -16.782608 -2.397628 0.034975 8.92358 1.41694 -0.003484 3.068212 0.964559 11.247853 -41.592616 -5.091817 8.758389 27.877686 7.677094 -0.588171 -6.63209 -2.325046 141.208112 42.416688 -145.515913 -143.205263 -11.343108 -167.08988 23.982154 25.717422 -34.776799 -0.765359 29.411955 -7.105728 -162.148956 -32.231029 -84.070291 37.662619 -20.818748 6.991229 163.104745 -38.229959 -122.613599 31.902579 50.73403 -21.08332 -140.507356 -79.184133 -109.040073 -8.181106 -15.63959 1.164803 0.002349 -0.248129 0.078338 4.316948 60.070157 -16.942768 -0.977453 2.604459 -0.89671 -24.557506 70.266725 -8.400632 -179.99198 75.749607 -0.006194 107.324881 74.931762 163.074225 44.547598 -3.513341 105.931252 -126.881775 57.944411 -133.399192 179.999391 75.749608 0.000518 -138.028111 -10.689305 -94.844966 -89.268307 3.749557 161.791384 171.111638 -79.541486 64.697403
-61.9568 48.2647 -10.771899999999999 -159.348775 -38.985465 172.271892 9.894828 5.641251 92.670739 -4.745511 -4.911925 -85.9283 11.349866 21.50987 95.413077 -28.641058 7.453567 -70.325321 -0.000244 0.0 -0.000487 -0.000244 0.0 -0.000487 -23.204293 53.466638 25.429084 78.643053 -2.94445 13.153118 168.643768 13.903371 34.878683 -150.35133 32.877896 128.177038 -172.187928 -9.869469 89.942156 0.611898 -54.871172 8.239812 2.179215 -3.620497 -1.185426 18.101217 -8.707231 -1.399841 -3.871874 10.533896 2.380657 -50.525678 61.152382 44.082792 0.001177 2.616418 0.823233 -153.567185 20.317813 168.904394 16.296675 57.076446 12.46889 11.553587 32.577317 6.621597 128.573791 55.93582 -132.388588 -148.13069 3.207116 -154.150753 156.499259 -2.533022 -121.96581 -75.837402 -61.273255 -71.301417 -7.514579 -7.505787 0.670304 -7.083946 -14.828902 11.385035 20.958538 25.695818 -14.804183 22.406904 33.962935 -14.065193 16.09551 33.913137 -11.864205 -3.137895 0.645514 -0.09853 145.111698 -0.506352 178.967746 135.694982 -63.598512 157.737669 -2.851193 7.952829 -2.599268 -126.054944 87.003602 86.712805 -0.06493 0.000685 -0.048802 -12.155883 9.375144 -102.256319 -43.762194 -4.527637 -102.378336 80.122577 9.384201 167.847719 -0.002154 -0.001017 -0.000694 90.039796 -51.145404 -179.961763 89.791898 -5.098861 -179.047851 33.587827 70.428783 47.912214
-61.9985 48.1651 -10.7722 -159.207091 -39.049829 172.199523 10.09277 5.426038 96.064441 -4.869111 -4.583691 -89.330668 -9.274622 18.397967 -55.213219 30.361604 -1.301114 80.978149 -0.005006 -0.0 0.003049 -0.005006 -0.0 0.003049 -155.609235 -4.206605 161.984311 -26.005099 -28.978746 51.433391 -178.799979 -46.860447 -71.533203 -11.335948 -22.534489 -6.164408 -19.717807 17.566323 5.988324 -122.227226 -20.93478 103.22972 3.723802 -6.279322 -1.961697 -156.677655 -7.793563 110.152668 -13.443461 29.964416 9.641803 -170.987967 -28.579342 144.200567 -145.111844 -0.637404 -178.927459 -149.221668 -39.213906 -171.856659 20.351948 69.670133 13.049316 4.767696 9.572444 1.900767 102.874904 66.119405 -106.226574 67.23456 32.23648 -46.891336 -169.883443 21.381119 148.99727 40.062524 79.539748 -33.32606 -26.530983 -25.338357 -1.991017 12.632414 5.806155 6.112482 130.292602 15.923285 -109.308583 -9.951674 -4.030342 8.942439 -48.801247 -76.738779 -21.731802 -61.954094 -75.554338 -34.789123 145.097362 -1.759437 178.574222 -10.696039 4.004092 8.502735 6.979677 -15.40497 6.571239 -170.982581 84.141919 129.836176 179.991034 75.750978 0.008481 107.795119 77.415511 -2.786381 -42.495704 11.800739 -85.118026 24.594773 18.058888 130.242699 0.006624 0.000339 0.004364 90.494492 -51.115685 -179.305502 90.644701 -5.279604 175.557266 129.914751 79.991783 -52.453876
-62.032900000000005 48.0737 -10.7693 -159.072555 -39.065383 172.133778 14.979265 5.240506 -99.26978 4.096759 0.976142 105.936188 -5.3761 13.953782 -22.720859 19.963394 -15.005378 49.89073 0.00066 0.0 0.001402 0.00066 0.0 0.001402 -102.832367 66.126508 106.183686 -122.58291 -20.317851 125.287281 -1.834238 -47.014214 -148.582653 -161.930041 11.909634 139.051607 -178.051292 -15.615358 89.5339 -82.613218 11.011942 27.994182 158.323987 -70.396806 101.339093 11.368435 8.607419 -6.228295 -95.960859 59.994228 87.146565 0.803254 7.445084 1.340791 -145.120419 0.199903 -179.19089 12.018875 33.670214 -5.188932 10.971485 36.379233 9.384457 16.570764 50.378772 8.923315 139.185168 45.395333 -143.385789 -136.132131 -33.577614 -163.719542 -173.054309 13.100225 -119.468351 -143.675343 -43.337586 -136.526564 168.880272 -6.561111 -89.906062 160.484046 -1.962006 -83.160656 148.712237 -12.295095 -120.17758 0.090722 20.095823 5.171853 161.608675 -9.590115 -143.663152 171.203992 -28.307292 -143.806583 0.053337 -3.267996 1.028214 156.307919 -32.068295 -175.632939 168.650615 80.699321 147.675142 -0.191233 -3.033576 2.253928 -179.998993 75.750469 -0.00156 107.875211 77.49816 -5.276876 -39.719225 15.467273 -139.887967 65.818932 28.974442 173.895915 0.009439 -0.001181 0.006225 90.551783 -48.78059 9.554687 -89.6078 14.155676 0.512365 10.579756 9.435955 84.462745
-62.069300000000005 47.9924 -10.763499999999999 -158.966733 -39.080187 172.085968 10.304171 5.490025 92.189991 -4.654131 -4.892888 -85.388059 -7.557297 15.912438 -38.550782 26.198311 -9.198252 65.510773 0.000103 0.0 0.00131 0.005796 0.0 0.000929 -1.360876 7.447103 1.750879 93.737744 40.425882 -39.305125 -1.965484 -27.229188 108.900405 -9.563043 -29.942263 -7.399456 132.953725 -46.398764 68.13184 -28.820837 -26.333997 -17.670125 -124.662171 22.017386 105.072144 -6.530652 23.187811 -1.890562 -173.101339 -44.245028 144.915951 -45.020859 59.152529 38.821874 -0.008947 -0.79543 -0.248933 10.656612 -56.634333 -7.679445 -145.094284 11.81945 -141.753824 -4.415516 -14.699417 -7.534685 -2.043817 -14.506711 2.969043 115.413901 -3.185238 -153.001826 -5.490336 0.003935 61.332774 -132.031894 -52.033848 -125.666314 174.181508 -11.846157 -89.871291 39.609099 -22.429885 -4.442513 123.047477 23.564964 -103.810965 -2.376799 8.8891 6.24963 163.749228 -16.424867 -144.469183 175.544776 -39.345483 -142.85467 145.066618 -3.137176 178.140713 155.995849 11.216307 -179.432651 146.263468 15.595879 142.780458 147.601501 11.636073 141.681928 -179.989914 75.750006 -0.008838 111.19786 77.161741 -51.549491 -41.146528 -13.069231 -109.647168 116.979111 18.384216 167.693162 -0.014416 -0.000716 -0.012111 91.174126 -48.672178 0.370311 -94.036558 16.785897 -160.899314 -108.661125 -54.392242 153.17462
-62.1148 47.9221 -10.761700000000001 -158.925197 -39.122156 172.067025 10.324149 5.158976 99.17828 -4.927239 -4.343405 -92.451254 -9.683713 25.35097 -95.514834 32.153667 19.172973 116.361735 0.000761 -0.0 -0.003214 0.000761 -0.0 -0.003214 -14.231769 -82.9212 -35.008774 121.896166 27.770196 -139.359038 -173.544402 6.051072 33.531037 -161.194789 13.623722 138.398522 -12.504181 11.686831 3.163004 0.120053 1.152119 7.551375 171.205548 -64.965457 111.115966 10.734097 9.219887 -6.595056 10.399243 -32.547251 -3.264706 -167.027879 -16.040583 144.141091 -145.121081 0.784771 -179.373423 -157.2062 30.494027 177.319411 -152.474903 38.410913 -147.778684 -147.802593 11.017231 -141.648125 159.159001 -43.702356 -169.51057 -159.430278 31.712056 134.640904 -169.325057 16.010427 -121.897387 -147.416746 -39.29997 -139.964568 161.522526 0.775187 -89.141559 147.014022 1.587601 -73.197001 -21.958842 -39.000215 5.849502 149.839477 -2.118608 -111.416388 126.116983 49.540852 -115.711232 -5.700227 -6.852866 0.522424 0.003601 -0.291462 0.092257 156.315213 -19.792613 -174.177129 -0.897384 2.392977 -0.823972 -0.194752 -5.939473 1.92666 179.94635 75.749836 0.040822 108.07463 77.596419 -9.629526 -30.355515 5.992589 85.970453 116.890778 -51.603972 24.795885 179.988237 75.750193 0.010134 -137.624232 -11.870508 -97.078319 -87.370397 -0.122947 133.386204 164.333155 -45.783798 32.716701
-62.163900000000005 47.854 -10.7688 -158.863939 -39.179481 172.047596 10.363564 4.927676 103.449279 -5.063011 -3.994984 -96.8137 -8.141378 28.179358 -114.41635 28.161028 27.973501 133.836163 -0.000794 -0.0 0.002852 -0.000794 -0.0 0.002852 -1.840688 -76.272906 -21.268615 -108.008039 -41.999501 -79.393266 61.386441 -25.163402 -150.689494 -70.209111 55.345976 49.435398 0.766408 -0.757747 -0.113002 -144.952259 -53.621315 121.115821 -141.584646 0.059796 116.701054 -31.512012 48.517167 17.460606 -140.140769 36.840422 128.338363 -5.924305 23.354551 5.412278 -145.105459 3.983201 179.620911 10.36329 5.776688 -8.279791 -160.877462 68.482844 -151.107143 10.197016 26.149786 4.55153 8.395353 31.951358 -9.834967 122.282824 11.26392 -119.154466 6.084366 -34.815357 65.777019 -109.651637 -59.872056 -104.213643 -1.230888 -1.218422 0.176877 143.759145 -51.732084 -121.293464 10.138104 14.483607 -6.554325 -19.803956 -14.381867 1.443746 3.513381 9.625653 -2.142077 101.794759 62.455455 -92.932876 0.056876 6.142493 -1.934459 -8.299465 16.730077 -2.259587 149.244172 26.022755 145.297951 152.942029 27.517341 144.782126 179.983616 75.75054 0.014197 103.365937 75.778097 131.180228 39.748754 14.418259 74.448177 -160.393371 -0.03676 -178.777913 0.00458 -0.000368 0.004487 91.669366 -50.942174 -178.196542 90.58341 -5.376969 -177.960128 157.351977 17.466191 -93.103888
